<svg xmlns="http://www.w3.org/2000/svg" width="161" height="42" viewBox="0 0 161 42" fill="none">
<path d="M6.17918 1.73121L6.10042 1.73837L6.08924 1.81666C6.00998 2.37142 5.85323 4.41322 5.85323 6.76572V20.3172V20.3365C5.85323 21.6523 5.85323 22.597 5.93293 23.0752L5.93288 23.0752L5.93351 23.0784C5.97905 23.3061 6.15542 23.52 6.31567 23.6703C6.39777 23.7472 6.48028 23.8118 6.54853 23.8577C6.58253 23.8806 6.61435 23.8998 6.64178 23.9137C6.65544 23.9206 6.66946 23.927 6.68309 23.9318C6.69129 23.9347 6.7035 23.9387 6.71779 23.9407C7.00374 24.0208 7.42173 24.0598 7.87579 24.0888C8.04559 24.0996 8.22069 24.1091 8.39747 24.1186C8.69154 24.1345 8.99022 24.1506 9.27675 24.1738L9.37818 24.2752V24.9169C8.66173 24.9136 7.85953 24.8763 7.05453 24.8389L7.05299 24.8388C6.21203 24.7997 5.36807 24.7604 4.62159 24.7604C3.14507 24.7604 1.66899 24.8374 0.195886 24.9149L0.1 24.819V24.1969L0.198091 24.0988C0.438265 24.0987 0.829457 24.0971 1.22127 24.0691C1.42891 24.0543 1.63835 24.0319 1.8267 23.998C2.00676 23.9656 2.17352 23.9217 2.3019 23.8603C2.31122 23.8582 2.3192 23.8556 2.32509 23.8535C2.33873 23.8486 2.35275 23.8423 2.3664 23.8354C2.39384 23.8215 2.42565 23.8023 2.45965 23.7794C2.5279 23.7335 2.61042 23.6689 2.69252 23.5919C2.85277 23.4417 3.02913 23.2278 3.07468 23.0001L3.07473 23.0001L3.07526 22.9969C3.15495 22.5187 3.15495 21.574 3.15495 20.2582V20.2388V5.04241V5.02308C3.15495 3.70724 3.15495 2.76253 3.07526 2.28435L3.07531 2.28434L3.07468 2.28118C3.02913 2.05347 2.85277 1.83954 2.69252 1.68931C2.61042 1.61234 2.5279 1.54777 2.45965 1.50183C2.42565 1.47895 2.39384 1.45977 2.3664 1.44587C2.35275 1.43895 2.33873 1.43259 2.32509 1.42774C2.31689 1.42483 2.30468 1.42091 2.29039 1.41885C2.00481 1.33887 1.58758 1.29981 1.19207 1.27087C1.09657 1.26388 1.00237 1.25748 0.911173 1.25128C0.631025 1.23225 0.379135 1.21513 0.204404 1.1888L0.1 1.08439V0.462245L0.198045 0.3642C0.925354 0.365612 1.65313 0.403894 2.38387 0.442354L2.38518 0.442423C3.12846 0.481543 3.87481 0.520824 4.62159 0.520824C5.73139 0.520824 6.7105 0.483498 7.71165 0.445332L7.78805 0.44242C8.81612 0.403255 9.87192 0.36416 11.1231 0.36416C12.2615 0.36416 13.9212 0.385326 15.2964 1.1162C15.9813 1.48022 16.5953 2.02036 17.039 2.82401C17.4831 3.62842 17.7597 4.70264 17.7597 6.13906C17.7597 7.83905 17.1414 9.63489 15.8387 11.0051C14.5376 12.3737 12.5477 13.3239 9.7915 13.3239C8.58004 13.3239 7.90513 13.1022 7.60458 12.8918L7.4039 12.2898L7.53202 12.2044C7.93871 12.3594 8.56466 12.5056 9.47818 12.5056C10.831 12.5056 12.1307 12.0678 13.0927 11.1258C14.0555 10.1831 14.6698 8.74539 14.6698 6.76572C14.6698 4.986 14.1947 3.69956 13.215 2.86126C12.2387 2.02587 10.7804 1.65247 8.85152 1.65247H8.84883C7.75435 1.65247 7.04535 1.65247 6.17918 1.73121Z" fill="white" stroke="black" stroke-width="0.2"/>
<path d="M22.0942 9.68674L22.0887 9.67851L22.0817 9.6715L21.6117 9.20151L21.6003 9.19004L21.5858 9.18278C21.5571 9.16846 21.5136 9.15409 21.4655 9.1402C21.4151 9.12565 21.3525 9.10961 21.2812 9.09287C21.1384 9.05934 20.9579 9.02227 20.7656 8.98776C20.3831 8.9191 19.9448 8.85889 19.6611 8.85889H19.6044V8.45199L19.7024 8.35398C20.2031 8.35575 20.7685 8.38912 21.3721 8.42476C21.4132 8.42719 21.4545 8.42963 21.496 8.43207C22.1617 8.47122 22.8694 8.51057 23.5777 8.51057C24.9699 8.51057 26.3615 8.43439 27.3777 8.35712L27.4726 8.45199V8.91747L27.374 9.01606C27.1609 9.02083 26.7909 9.0595 26.4501 9.11476C26.2674 9.1444 26.09 9.17929 25.9472 9.21718C25.876 9.2361 25.8114 9.25628 25.7582 9.27768C25.7145 9.29528 25.6694 9.31717 25.6355 9.3457C25.4775 9.42664 25.2299 9.59061 25.1348 9.8473C25.1093 9.87889 25.0888 9.91887 25.0714 9.96205C25.0496 10.0163 25.0292 10.0844 25.0102 10.1663C24.9721 10.3302 24.9373 10.5577 24.9077 10.8584C24.8485 11.4604 24.8093 12.3649 24.8093 13.6588V19.847C24.8093 21.0844 25.2289 22.1295 25.9749 22.8655C26.7208 23.6013 27.7853 24.0203 29.0609 24.0203C30.2852 24.0203 31.5077 23.7838 32.4247 23.0179C33.3453 22.2491 33.9392 20.9631 33.9392 18.9071V13.4238C33.9392 12.5418 33.9147 11.8558 33.8428 11.3176C33.7709 10.7799 33.6506 10.381 33.4528 10.0791C33.0587 9.47753 32.3784 9.2946 31.3138 9.10298L31.1975 8.92862V8.45199L31.2926 8.35691C31.3464 8.36075 31.4 8.3646 31.4534 8.36843C32.4719 8.44151 33.4343 8.51057 34.4658 8.51057C35.4194 8.51057 36.441 8.44216 37.5265 8.36946C37.5898 8.36522 37.6534 8.36096 37.7171 8.35671L37.8124 8.45199V8.90538L37.647 9.01568C37.3328 9.01812 36.966 9.05808 36.6178 9.13544C36.2599 9.21498 35.9134 9.33588 35.6637 9.50235L35.6554 9.50784L35.6484 9.51484C35.3915 9.77179 35.2301 10.1687 35.1309 10.7637C35.0316 11.3598 34.9925 12.1696 34.9925 13.2672V18.8287C34.9925 21.0048 34.4098 22.6016 33.3761 23.6544C32.3427 24.707 30.8442 25.2303 28.9826 25.2303C26.7232 25.2303 25.0848 24.7431 24.0128 23.8721C22.9443 23.0039 22.4243 21.7428 22.4243 20.1604V13.5022C22.4243 12.2472 22.3852 11.3624 22.326 10.7605C22.2964 10.4597 22.2616 10.2278 22.2238 10.055C22.1866 9.88539 22.1444 9.76199 22.0942 9.68674Z" fill="white" stroke="black" stroke-width="0.2"/>
<path d="M47.5561 16.2933C49.7342 12.4815 50.8301 10.6797 52.3026 8.35383H54.2625V8.7597C52.1483 10.8053 49.9646 13.9276 48.9465 15.964C48.6713 16.5142 48.5091 16.8775 48.4184 17.4016C48.3286 17.9207 48.3092 18.5952 48.3092 19.7686C48.3092 21.0236 48.3484 21.9084 48.4076 22.5103C48.4372 22.8111 48.472 23.0429 48.5098 23.2158C48.547 23.3854 48.5892 23.5088 48.6394 23.584L48.6449 23.5923L48.6519 23.5993L48.6528 23.6002L48.6537 23.6011L48.6546 23.602L48.6555 23.603L48.6565 23.6039L48.6574 23.6048L48.6583 23.6057L48.6592 23.6066L48.6601 23.6076L48.661 23.6085L48.662 23.6094L48.6629 23.6103L48.6638 23.6112L48.6647 23.6121L48.6656 23.6131L48.6666 23.614L48.6675 23.6149L48.6684 23.6158L48.6693 23.6167L48.6702 23.6176L48.6711 23.6186L48.6721 23.6195L48.673 23.6204L48.6739 23.6213L48.6748 23.6222L48.6757 23.6232L48.6767 23.6241L48.6776 23.625L48.6785 23.6259L48.6794 23.6268L48.6803 23.6277L48.6812 23.6287L48.6822 23.6296L48.6831 23.6305L48.684 23.6314L48.6849 23.6323L48.6858 23.6333L48.6868 23.6342L48.6877 23.6351L48.6886 23.636L48.6895 23.6369L48.6904 23.6378L48.6913 23.6388L48.6923 23.6397L48.6932 23.6406L48.6941 23.6415L48.695 23.6424L48.6959 23.6434L48.6968 23.6443L48.6978 23.6452L48.6987 23.6461L48.6996 23.647L48.7005 23.6479L48.7014 23.6489L48.7024 23.6498L48.7033 23.6507L48.7042 23.6516L48.7051 23.6525L48.706 23.6534L48.7069 23.6544L48.7079 23.6553L48.7088 23.6562L48.7097 23.6571L48.7106 23.658L48.7115 23.659L48.7125 23.6599L48.7134 23.6608L48.7143 23.6617L48.7152 23.6626L48.7161 23.6635L48.717 23.6645L48.718 23.6654L48.7189 23.6663L48.7198 23.6672L48.7207 23.6681L48.7216 23.6691L48.7226 23.67L48.7235 23.6709L48.7244 23.6718L48.7253 23.6727L48.7262 23.6736L48.7271 23.6746L48.7281 23.6755L48.729 23.6764L48.7299 23.6773L48.7308 23.6782L48.7317 23.6792L48.7326 23.6801L48.7336 23.681L48.7345 23.6819L48.7354 23.6828L48.7363 23.6837L48.7372 23.6847L48.7382 23.6856L48.7391 23.6865L48.74 23.6874L48.7409 23.6883L48.7418 23.6892L48.7427 23.6902L48.7437 23.6911L48.7446 23.692L48.7455 23.6929L48.7464 23.6938L48.7473 23.6948L48.7483 23.6957L48.7492 23.6966L48.7501 23.6975L48.751 23.6984L48.7519 23.6993L48.7528 23.7003L48.7538 23.7012L48.7547 23.7021L48.7556 23.703L48.7565 23.7039L48.7574 23.7049L48.7584 23.7058L48.7593 23.7067L48.7602 23.7076L48.7611 23.7085L48.762 23.7094L48.7629 23.7104L48.7639 23.7113L48.7648 23.7122L48.7657 23.7131L48.7666 23.714L48.7675 23.715L48.7684 23.7159L48.7694 23.7168L48.7703 23.7177L48.7712 23.7186L48.7721 23.7195L48.773 23.7205L48.774 23.7214L48.7749 23.7223L48.7758 23.7232L48.7767 23.7241L48.7776 23.725L48.7785 23.726L48.7795 23.7269L48.7804 23.7278L48.7813 23.7287L48.7822 23.7296L48.7831 23.7306L48.7841 23.7315L48.785 23.7324L48.7859 23.7333L48.7868 23.7342L48.7877 23.7351L48.7886 23.7361L48.7896 23.737L48.7905 23.7379L48.7914 23.7388L48.7923 23.7397L48.7932 23.7407L48.7942 23.7416L48.7951 23.7425L48.796 23.7434L48.7969 23.7443L48.7978 23.7452L48.7987 23.7462L48.7997 23.7471L48.8006 23.748L48.8015 23.7489L48.8024 23.7498L48.8033 23.7508L48.8042 23.7517L48.8052 23.7526L48.8061 23.7535L48.807 23.7544L48.8079 23.7553L48.8088 23.7563L48.8098 23.7572L48.8107 23.7581L48.8116 23.759L48.8125 23.7599L48.8134 23.7608L48.8143 23.7618L48.8153 23.7627L48.8162 23.7636L48.8171 23.7645L48.818 23.7654L48.8189 23.7664L48.8199 23.7673L48.8208 23.7682L48.8217 23.7691L48.8226 23.77L48.8235 23.7709L48.8244 23.7719L48.8254 23.7728L48.8263 23.7737L48.8272 23.7746L48.8281 23.7755L48.829 23.7765L48.83 23.7774L48.8309 23.7783L48.8318 23.7792L48.8327 23.7801L48.8336 23.781L48.8345 23.782L48.8355 23.7829L48.8364 23.7838L48.8373 23.7847L48.8382 23.7856L48.8391 23.7866L48.84 23.7875L48.841 23.7884L48.8419 23.7893L48.8428 23.7902L48.8437 23.7911L48.8446 23.7921L48.8456 23.793L48.8465 23.7939L48.8474 23.7948L48.8483 23.7957L48.8492 23.7966L48.8501 23.7976L48.8511 23.7985L48.852 23.7994L48.8529 23.8003L48.8538 23.8012L48.8547 23.8022L48.8557 23.8031L48.8566 23.804L48.8575 23.8049L48.8584 23.8058L48.8593 23.8067L48.8602 23.8077L48.8612 23.8086L48.8621 23.8095L48.863 23.8104L48.8639 23.8113L48.8648 23.8123L48.8658 23.8132L48.8667 23.8141L48.8676 23.815L48.8685 23.8159L48.8694 23.8168L48.8703 23.8178L48.8713 23.8187L48.8722 23.8196L48.8731 23.8205L48.874 23.8214L48.8749 23.8224L48.8758 23.8233L48.8768 23.8242L48.8777 23.8251L48.8786 23.826L48.8795 23.8269L48.8804 23.8279L48.8814 23.8288L48.8823 23.8297L48.8832 23.8306L48.8841 23.8315L48.885 23.8324L48.8859 23.8334L48.8869 23.8343L48.8878 23.8352L48.8887 23.8361L48.8896 23.837L48.8905 23.838L48.8915 23.8389L48.8924 23.8398L48.8933 23.8407L48.8942 23.8416L48.8951 23.8425L48.896 23.8435L48.897 23.8444L48.8979 23.8453L48.8988 23.8462L48.8997 23.8471L48.9006 23.8481L48.9016 23.849L48.9025 23.8499L48.9034 23.8508L48.9043 23.8517L48.9052 23.8526L48.9061 23.8536L48.9071 23.8545L48.908 23.8554L48.9089 23.8563L48.9098 23.8572L48.9107 23.8582L48.9116 23.8591L48.9126 23.86L48.9135 23.8609L48.9144 23.8618L48.9153 23.8627L48.9162 23.8637L48.9172 23.8646L48.9181 23.8655L48.919 23.8664L48.9199 23.8673L48.9208 23.8682L48.9217 23.8692L48.9227 23.8701L48.9236 23.871L48.9245 23.8719L48.9254 23.8728L48.9263 23.8738L48.9273 23.8747L48.9282 23.8756L48.9291 23.8765L48.93 23.8774L48.9309 23.8783L48.9318 23.8793L48.9328 23.8802L48.9337 23.8811L48.9346 23.882L48.9355 23.8829L48.9364 23.8839L48.9374 23.8848L48.9383 23.8857L48.9392 23.8866L48.9401 23.8875L48.941 23.8884L48.9419 23.8894L48.9429 23.8903L48.9438 23.8912L48.9447 23.8921L48.9456 23.893L48.9465 23.894L48.9474 23.8949L48.9484 23.8958L48.9493 23.8967L48.9502 23.8976L48.9511 23.8985L48.952 23.8995L48.953 23.9004L48.9539 23.9013L48.9548 23.9022L48.9557 23.9031L48.9566 23.904L48.9575 23.905L48.9585 23.9059L48.9594 23.9068L48.9603 23.9077L48.9612 23.9086L48.9621 23.9096L48.9631 23.9105L48.964 23.9114L48.9649 23.9123L48.9658 23.9132L48.9667 23.9141L48.9676 23.9151L48.9686 23.916L48.9695 23.9169L48.9704 23.9178L48.9713 23.9187L48.9722 23.9197L48.9732 23.9206L48.9741 23.9215L48.975 23.9224L48.9759 23.9233L48.9768 23.9242L48.9777 23.9252L48.9787 23.9261L48.9796 23.927L48.9805 23.9279L48.9814 23.9288L48.9823 23.9298L48.9832 23.9307L48.9842 23.9316L48.9851 23.9325L48.986 23.9334L48.9869 23.9343L48.9878 23.9353L48.9888 23.9362L48.9897 23.9371L48.9906 23.938L48.9915 23.9389L48.9924 23.9398L48.9933 23.9408L48.9943 23.9417L48.9952 23.9426L48.9961 23.9435L48.997 23.9444L48.9979 23.9454L48.9989 23.9463L48.9998 23.9472L49.0007 23.9481L49.0016 23.949L49.0025 23.9499L49.0034 23.9509L49.0044 23.9518L49.0053 23.9527L49.0062 23.9536L49.0071 23.9545L49.008 23.9555L49.009 23.9564L49.0099 23.9573L49.0108 23.9582L49.0117 23.9591L49.0126 23.96L49.0135 23.961L49.0145 23.9619L49.0154 23.9628L49.0163 23.9637L49.0172 23.9646L49.0181 23.9656L49.019 23.9665L49.02 23.9674L49.0209 23.9683L49.0218 23.9692L49.0227 23.9701L49.0236 23.9711L49.0246 23.972L49.0255 23.9729L49.0264 23.9738L49.0273 23.9747L49.0282 23.9756L49.0291 23.9766L49.0301 23.9775L49.031 23.9784L49.0319 23.9793L49.0328 23.9802L49.0337 23.9812L49.0347 23.9821L49.0356 23.983L49.0365 23.9839L49.0374 23.9848L49.0383 23.9857L49.0392 23.9867L49.0402 23.9876L49.0411 23.9885L49.042 23.9894L49.0429 23.9903L49.0438 23.9913L49.0448 23.9922L49.0457 23.9931L49.0466 23.994L49.0475 23.9949L49.0484 23.9958L49.0493 23.9968L49.0503 23.9977L49.0512 23.9986L49.0521 23.9995L49.053 24.0004L49.0539 24.0014L49.0548 24.0023L49.0558 24.0032L49.0567 24.0041L49.0576 24.005L49.0585 24.0059L49.0594 24.0069L49.0604 24.0078L49.0613 24.0087L49.0622 24.0096L49.0631 24.0105L49.064 24.0114L49.0649 24.0124L49.0659 24.0133L49.0668 24.0142L49.0677 24.0151L49.0686 24.016L49.0695 24.017L49.0705 24.0179L49.0714 24.0188L49.0723 24.0197L49.0732 24.0206L49.0741 24.0215L49.075 24.0225L49.076 24.0234L49.0769 24.0243L49.0778 24.0252L49.0787 24.0261L49.0796 24.0271L49.0806 24.028L49.0815 24.0289L49.0824 24.0298L49.0833 24.0307L49.0842 24.0316L49.0851 24.0326L49.0861 24.0335L49.087 24.0344L49.0879 24.0353L49.0888 24.0362L49.0897 24.0372L49.0906 24.0381L49.0916 24.039L49.0925 24.0399L49.0934 24.0408L49.0943 24.0417L49.0952 24.0427L49.0962 24.0436L49.0971 24.0445L49.098 24.0454L49.0989 24.0463L49.0998 24.0472L49.1007 24.0482L49.1017 24.0491L49.1026 24.05L49.1035 24.0509L49.1044 24.0518L49.1053 24.0528L49.1063 24.0537L49.1072 24.0546L49.1081 24.0555L49.109 24.0564L49.1099 24.0573L49.1108 24.0583L49.1118 24.0592L49.1127 24.0601L49.1136 24.061L49.1145 24.0619L49.1154 24.0629L49.1164 24.0638L49.1173 24.0647L49.1182 24.0656L49.1191 24.0665L49.12 24.0674L49.1209 24.0684L49.1219 24.0693L49.1333 24.0808L49.1478 24.088C49.1765 24.1023 49.22 24.1167 49.2683 24.1306C49.3189 24.1452 49.3819 24.1612 49.4539 24.178C49.5979 24.2115 49.7809 24.2486 49.9782 24.2831C50.3545 24.349 50.7899 24.4068 51.1091 24.4116L51.2075 24.51V24.9755L51.1095 25.0735C50.5163 25.0719 49.8878 25.0359 49.2378 24.9988L49.1787 24.9954C48.4936 24.9562 47.7859 24.9169 47.0776 24.9169C45.6812 24.9169 44.2854 24.9935 43.0431 25.0709L42.9477 24.9755V24.51L43.0459 24.4117C43.3989 24.4088 43.8528 24.37 44.2333 24.3129C44.431 24.2832 44.6118 24.2482 44.7495 24.21C44.8181 24.1909 44.8792 24.1702 44.9275 24.1475C44.9516 24.1362 44.975 24.1232 44.9953 24.1081C45.0063 24.0999 45.0184 24.0895 45.0296 24.0767C45.1878 23.994 45.4273 23.8316 45.5205 23.5802C45.546 23.5486 45.5665 23.5086 45.5838 23.4654C45.6057 23.4111 45.626 23.343 45.6451 23.2612C45.6832 23.0973 45.718 22.8697 45.7476 22.569C45.8068 21.9671 45.846 21.0626 45.846 19.7686V18.8287C45.846 18.2577 45.5834 17.4186 45.1741 16.4921C44.7629 15.5614 44.1972 14.5287 43.578 13.5655C42.959 12.6026 42.2844 11.7059 41.6543 11.0486C41.3394 10.7201 41.0333 10.449 40.7487 10.2593C40.4663 10.071 40.1941 9.95547 39.9494 9.95547C39.7471 9.95547 39.5658 9.97572 39.4082 9.99541C39.388 9.99793 39.3683 10.0004 39.3491 10.0029C39.2475 10.0158 39.1593 10.0269 39.0807 10.0316L38.8987 9.48552L42.0055 8.19736C42.4298 8.20565 42.9075 8.48426 43.4116 8.9788C43.92 9.47752 44.439 10.1798 44.9362 10.9891C45.9303 12.607 46.8281 14.6365 47.3744 16.2753L47.4451 16.4875L47.5561 16.2933Z" fill="white" stroke="black" stroke-width="0.2"/>
<path d="M62.5686 23.3179L62.5813 23.3689L62.6305 23.3873C63.2641 23.6249 64.6864 24.0203 66.0339 24.0203C68.2822 24.0203 70.0948 23.4482 71.3441 22.1589C72.5929 20.8702 73.2621 18.8822 73.2621 16.0871C73.2621 13.245 72.3727 11.5079 71.0394 10.4853C69.7114 9.46684 67.9615 9.17222 66.2688 9.17222C64.8136 9.17222 64.1179 9.27436 63.2923 9.39558C63.091 9.42513 62.882 9.45581 62.6524 9.48643L62.5732 9.49698L62.566 9.5765C62.4875 10.4404 62.4089 11.6968 62.4089 12.9538V20.0037V20.0051C62.4089 20.7481 62.4089 21.4154 62.4286 21.9753C62.4482 22.5339 62.4875 22.9935 62.5686 23.3179ZM60.1023 13.1888V13.0888H60.024C60.0239 12.3426 60.0235 11.6364 60.0142 11.0917C60.0092 10.8074 60.0019 10.5657 59.9907 10.3847C59.9852 10.2944 59.9786 10.2177 59.9706 10.1578C59.9639 10.1068 59.9548 10.055 59.9387 10.0185C59.8944 9.88865 59.8101 9.74316 59.707 9.61945C59.6051 9.49718 59.4754 9.38487 59.3351 9.33611C59.3058 9.32259 59.2634 9.30931 59.2173 9.29655C59.1648 9.28202 59.0991 9.26601 59.0241 9.24928C58.874 9.21579 58.6838 9.17876 58.4818 9.14427C58.0942 9.07809 57.6546 9.01981 57.3696 9.01578L57.204 8.90538V8.45199L57.302 8.35398C57.8027 8.35575 58.3681 8.38912 58.9717 8.42476C59.0128 8.42719 59.0541 8.42963 59.0956 8.43207C59.7613 8.47122 60.469 8.51057 61.1773 8.51057C62.3542 8.51057 63.5699 8.47134 64.7154 8.43218C64.7912 8.42959 64.8667 8.427 64.9418 8.42442C66.0032 8.38799 66.9962 8.35391 67.8355 8.35391C70.2097 8.35391 72.2402 8.93785 73.6755 10.1419C75.108 11.3437 75.9604 13.1739 75.9604 15.6954C75.9604 17.9468 75.2422 20.2514 73.6369 21.9921C72.0332 23.7311 69.5352 24.917 65.9555 24.917C65.3108 24.917 64.5918 24.8801 63.8493 24.842L63.7869 24.8388C63.0236 24.7996 62.2377 24.7603 61.4906 24.7603C60.4302 24.7603 58.8502 24.8334 58.3139 24.9104L58.2223 24.8189V24.3534L58.3272 24.2485C58.5632 24.2067 58.8488 24.1293 59.1068 24.0337C59.372 23.9355 59.6255 23.8119 59.7597 23.6777C59.7846 23.6527 59.8005 23.6192 59.8114 23.5912C59.8234 23.5605 59.8344 23.5232 59.8446 23.481C59.8651 23.3964 59.8846 23.2833 59.9031 23.1441C59.9403 22.8652 59.9748 22.4733 60.0042 21.9777C60.0631 20.9862 60.1023 19.5741 60.1023 17.8104V13.1888Z" fill="white" stroke="black" stroke-width="0.2"/>
<path d="M77.8672 9.68674L77.8617 9.67851L77.8547 9.6715L77.6197 9.43651L77.3847 9.20151L77.3732 9.19004L77.3587 9.18278C77.3301 9.16846 77.2866 9.15409 77.2385 9.1402C77.1881 9.12565 77.1254 9.10961 77.0541 9.09287C76.9113 9.05934 76.7308 9.02227 76.5385 8.98776C76.156 8.9191 75.7177 8.85889 75.434 8.85889H75.3773V8.45199L75.4754 8.35398C75.976 8.35575 76.5414 8.38912 77.1451 8.42476C77.1862 8.42719 77.2275 8.42963 77.2689 8.43207C77.9346 8.47122 78.6423 8.51057 79.3506 8.51057C80.7429 8.51057 82.1345 8.43439 83.1507 8.35712L83.2455 8.45199V8.91747L83.147 9.01606C82.9339 9.02083 82.5639 9.0595 82.2231 9.11476C82.0403 9.1444 81.8629 9.17929 81.7202 9.21718C81.6489 9.2361 81.5843 9.25628 81.5312 9.27768C81.4875 9.29528 81.4424 9.31717 81.4085 9.3457C81.2505 9.42664 81.0029 9.59062 80.9077 9.8473C80.8822 9.87889 80.8618 9.91887 80.8444 9.96205C80.8225 10.0163 80.8022 10.0844 80.7831 10.1663C80.745 10.3302 80.7102 10.5577 80.6807 10.8584C80.6214 11.4604 80.5823 12.3649 80.5823 13.6588V19.847C80.5823 21.0844 81.0018 22.1295 81.7478 22.8655C82.4938 23.6013 83.5582 24.0203 84.8338 24.0203C86.0581 24.0203 87.2806 23.7838 88.1977 23.0179C89.1183 22.2491 89.7121 20.9631 89.7121 18.9071V13.4238C89.7121 12.5418 89.6877 11.8558 89.6158 11.3176C89.5439 10.7799 89.4236 10.381 89.2258 10.0791C88.8303 9.47545 88.1467 9.29334 87.0757 9.10099L86.9705 8.99581V8.53032L87.0656 8.43524C87.1193 8.43909 87.1729 8.44293 87.2263 8.44676C88.2448 8.51985 89.2072 8.5889 90.2388 8.5889C91.1924 8.5889 92.214 8.52049 93.2995 8.44779C93.3628 8.44355 93.4263 8.43929 93.4901 8.43504L93.5854 8.53032V8.91747L93.4871 9.01578C93.1754 9.01907 92.8131 9.05899 92.4691 9.13544C92.1112 9.21498 91.7646 9.33588 91.5149 9.50235L91.5067 9.50784L91.4997 9.51484C91.2427 9.77179 91.0813 10.1687 90.9822 10.7637C90.8828 11.3598 90.8438 12.1696 90.8438 13.2672V18.8287C90.8438 21.0048 90.2611 22.6016 89.2274 23.6544C88.194 24.707 86.6955 25.2303 84.8338 25.2303C82.5745 25.2303 80.9361 24.7431 79.8641 23.8721C78.7955 23.0039 78.2756 21.7428 78.2756 20.1604L78.2756 20.1592L78.1973 13.5022C78.1973 13.502 78.1973 13.5018 78.1973 13.5016C78.1973 12.2469 78.1581 11.3623 78.0989 10.7605C78.0693 10.4597 78.0346 10.2278 77.9967 10.055C77.9596 9.88539 77.9173 9.76199 77.8672 9.68674Z" fill="white" stroke="black" stroke-width="0.2"/>
<path d="M99.8154 2.28435L99.8154 2.28434L99.8148 2.28118C99.7692 2.05347 99.5929 1.83954 99.4326 1.68931C99.3505 1.61234 99.268 1.54777 99.1998 1.50183C99.1658 1.47895 99.1339 1.45977 99.1065 1.44587C99.0929 1.43895 99.0788 1.43259 99.0652 1.42774C99.0575 1.42502 99.0463 1.42141 99.0332 1.41927C98.7844 1.33867 98.4052 1.29969 98.0505 1.27093C97.9666 1.26412 97.884 1.25789 97.8044 1.25187C97.5514 1.23274 97.3275 1.21582 97.1806 1.18991L97.0751 1.08439V0.462245L97.1731 0.364258C97.4678 0.365618 97.8583 0.381102 98.3828 0.401895C98.6922 0.414163 99.0482 0.428279 99.4587 0.442433C100.595 0.481632 102.144 0.520824 104.26 0.520824C107.065 0.520824 109.869 0.443394 111.827 0.365498L112.381 0.781524L112.078 5.17741H111.665L111.566 5.07891C111.559 4.71094 111.46 4.13714 111.308 3.59562C111.229 3.31339 111.134 3.03687 111.029 2.79994C110.925 2.5651 110.806 2.3607 110.676 2.23008L110.66 2.21418L110.639 2.20662C109.523 1.80834 107.705 1.7308 106.532 1.7308H106.526C105.823 1.7308 104.168 1.73079 103.058 2.04798L102.989 2.06753L102.985 2.13858C102.907 3.54772 102.75 6.52737 102.75 8.1757C102.75 8.9589 102.75 9.93863 102.76 10.801C102.77 11.6603 102.789 12.4111 102.829 12.7314L102.837 12.792L102.894 12.8129C103.772 13.1323 104.65 13.1323 106.123 13.1323H106.14C106.848 13.1323 107.869 13.093 108.85 13.0145C109.797 12.9387 110.715 12.8259 111.28 12.6742L111.367 12.7604V14.6358L111.289 14.7139C111.034 14.6046 110.656 14.5344 110.044 14.4894C109.374 14.4401 108.412 14.4206 107.002 14.4206H106.988C104.885 14.4206 103.706 14.4206 102.996 14.4995L102.91 14.509L102.907 14.5949C102.828 16.555 102.828 18.4365 102.828 20.3158V20.3172V20.3369C102.828 21.6525 102.828 22.5971 102.908 23.0752L102.908 23.0752L102.909 23.0784C102.954 23.3061 103.131 23.52 103.291 23.6703C103.373 23.7472 103.455 23.8118 103.524 23.8577C103.558 23.8806 103.589 23.8998 103.617 23.9137C103.631 23.9206 103.645 23.927 103.658 23.9318C103.666 23.9348 103.679 23.9387 103.693 23.9407C103.84 23.9814 104.06 24.0107 104.308 24.0335C104.564 24.0569 104.857 24.0741 105.146 24.0888C105.269 24.0951 105.391 24.1009 105.509 24.1065C105.926 24.1264 106.294 24.1438 106.484 24.171L106.588 24.2752V24.8973L106.491 24.9951C106.327 24.9928 106.005 24.9781 105.577 24.9586C105.303 24.9462 104.985 24.9317 104.636 24.9172C103.696 24.878 102.539 24.8388 101.44 24.8388C100.341 24.8388 99.3991 24.878 98.6734 24.9172C98.4033 24.9318 98.1644 24.9463 97.9588 24.9588C97.6399 24.9782 97.4013 24.9927 97.2512 24.9951L97.1534 24.8973V24.2752L97.2515 24.1771C97.4855 24.177 97.8216 24.1754 98.1584 24.1474C98.5055 24.1185 98.8675 24.0605 99.1204 23.9386C99.1297 23.9365 99.1376 23.9339 99.1435 23.9318C99.1572 23.927 99.1712 23.9206 99.1848 23.9137C99.2123 23.8998 99.2441 23.8806 99.2781 23.8577C99.3463 23.8118 99.4289 23.7472 99.511 23.6703C99.6712 23.52 99.8476 23.3061 99.8931 23.0784L99.8932 23.0784L99.8937 23.0752C99.9734 22.5971 99.9734 21.6525 99.9734 20.3369L99.9734 20.3172L99.9734 20.3167L99.8951 5.04241V5.04213V5.0233C99.8951 3.70734 99.8951 2.76256 99.8154 2.28435Z" fill="white" stroke="black" stroke-width="0.2"/>
<path d="M122.59 8.85923C120.375 8.85923 118.777 9.53238 117.734 10.7951C116.695 12.0542 116.223 13.8829 116.223 16.1658C116.223 18.8815 116.833 20.9626 117.938 22.3669C119.047 23.7745 120.644 24.4906 122.59 24.4906C124.852 24.4906 126.449 23.5956 127.478 22.1979C128.503 20.8044 128.956 18.9207 128.956 16.9491C128.956 14.7452 128.524 12.7248 127.509 11.2524C126.49 9.77452 124.892 8.85923 122.59 8.85923ZM122.59 8.04092C125.629 8.04092 127.892 8.82003 129.395 10.2268C130.897 11.6327 131.655 13.6789 131.655 16.2441C131.655 21.5915 127.785 25.2306 122.59 25.2306C119.828 25.2306 117.564 24.4142 115.99 22.9371C114.417 21.4608 113.525 19.3151 113.525 16.6358C113.525 13.8385 114.437 11.6936 116.019 10.2472C117.601 8.79954 119.866 8.04092 122.59 8.04092Z" fill="white" stroke="black" stroke-width="0.2"/>
<path d="M136.224 9.68667L136.219 9.67843L136.212 9.67143L135.742 9.20144L135.73 9.18996L135.716 9.18271C135.687 9.16838 135.644 9.15402 135.595 9.14012C135.545 9.12557 135.482 9.10954 135.411 9.09279C135.268 9.05927 135.088 9.0222 134.895 8.98768C134.531 8.92232 134.117 8.86461 133.833 8.85923L133.734 8.76074V8.29525L133.832 8.19724C134.333 8.19901 134.898 8.23239 135.502 8.26802C135.543 8.27045 135.584 8.27289 135.626 8.27533C136.292 8.31449 136.999 8.35383 137.708 8.35383C139.1 8.35383 140.491 8.27765 141.508 8.20038L141.602 8.29525V8.9174L141.504 9.01598C141.291 9.02076 140.921 9.05943 140.58 9.11469C140.397 9.14433 140.22 9.17921 140.077 9.21711C140.006 9.23603 139.941 9.25621 139.888 9.2776C139.844 9.2952 139.799 9.3171 139.765 9.34563C139.601 9.42964 139.361 9.59188 139.196 9.83615C139.166 9.8692 139.142 9.91358 139.123 9.96198C139.101 10.0163 139.081 10.0843 139.062 10.1662C139.024 10.3301 138.989 10.5576 138.959 10.8584C138.9 11.4603 138.861 12.3648 138.861 13.6587V19.847C138.861 21.0843 139.28 22.1295 140.026 22.8654C140.772 23.6013 141.837 24.0202 143.112 24.0202C144.337 24.0202 145.559 23.7838 146.476 23.0178C147.397 22.249 147.991 20.963 147.991 18.907V13.4237C147.991 12.5417 147.966 11.8557 147.894 11.3176C147.822 10.7798 147.702 10.3809 147.504 10.079C147.109 9.47538 146.425 9.29326 145.354 9.10092L145.249 8.99573V8.53025L145.344 8.43517C145.398 8.43901 145.451 8.44286 145.505 8.44669C146.523 8.51977 147.486 8.58883 148.517 8.58883C149.471 8.58883 150.493 8.52041 151.578 8.44772C151.641 8.44348 151.705 8.43922 151.769 8.43496L151.864 8.53025V8.9174L151.766 9.01571C151.454 9.01899 151.092 9.05892 150.748 9.13536C150.39 9.21491 150.043 9.33581 149.794 9.50227L149.781 9.51032L149.772 9.52146C149.56 9.77554 149.4 10.1671 149.29 10.762C149.181 11.358 149.122 12.1677 149.122 13.2671V18.8287C149.122 21.0047 148.54 22.6015 147.506 23.6544C146.473 24.707 144.974 25.2302 143.112 25.2302C140.853 25.2302 139.215 24.743 138.143 23.872C137.074 23.0038 136.554 21.7427 136.554 20.1603V13.5021C136.554 12.2471 136.515 11.3623 136.456 10.7605C136.426 10.4596 136.391 10.2278 136.354 10.0549C136.317 9.88531 136.274 9.76192 136.224 9.68667Z" fill="white" stroke="black" stroke-width="0.2"/>
<path d="M155.154 22.8238V22.9238H155.254H155.646C155.65 22.9238 155.654 22.9238 155.658 22.9238C155.805 22.9239 155.979 22.9239 156.115 22.8672C156.189 22.8363 156.256 22.7874 156.303 22.7114C156.35 22.6363 156.372 22.5431 156.372 22.4322C156.372 22.2335 156.269 22.1046 156.134 22.031C156.006 21.961 155.85 21.9405 155.724 21.9405H155.254H155.154V22.0405V22.8238ZM155.953 23.1912L156.559 24.1338H156.406L155.809 23.1631L155.78 23.1155H155.724H155.332H155.232V23.2155V24.1338H155.041V21.9055H155.802C156.064 21.9055 156.254 21.962 156.376 22.0598C156.495 22.1547 156.564 22.2995 156.564 22.5105C156.564 22.7302 156.509 22.8543 156.43 22.9261C156.349 22.9996 156.223 23.0371 156.037 23.0371H155.854L155.953 23.1912ZM156.9 24.2948C157.249 23.9612 157.469 23.493 157.469 22.9805C157.469 21.904 156.638 21.1572 155.646 21.1572C154.65 21.1572 153.822 21.9853 153.822 22.9805H153.822L153.823 22.9881C153.904 24.0515 154.646 24.8038 155.646 24.8038C156.108 24.8038 156.534 24.625 156.858 24.3338H156.925L156.9 24.2948ZM155.646 21.0438C156.689 21.0438 157.582 21.8632 157.582 22.9805C157.582 24.0977 156.689 24.9171 155.646 24.9171C154.602 24.9171 153.709 24.0977 153.709 22.9805C153.709 21.8632 154.602 21.0438 155.646 21.0438Z" fill="white" stroke="black" stroke-width="0.2"/>
<path d="M128.151 38.255C123.059 38.8033 118.673 38.5683 113.425 38.725C112.171 38.8033 111.075 39.3516 110.605 39.195C110.37 39.0383 110.84 39.7433 111.31 39.1166C111.231 39.1166 111.153 38.725 108.881 38.5683L109.586 38.4116C108.02 38.4116 107.158 37.315 105.2 37.9417C105.748 37.785 105.67 37.55 107.158 37.55C103.79 37.1583 104.808 37.8633 103.476 37.785L104.416 38.02C103.476 37.785 103.633 37.08 101.675 36.7667C101.596 37.0017 102.693 37.0017 100.891 36.845C100.108 36.6883 100.343 36.6883 100.108 36.5317C100.03 36.7667 99.5599 36.9233 98.3849 36.9233C98.8549 36.6883 99.4032 37.0017 99.4815 36.61C98.6199 36.61 97.6015 36.2967 96.9749 35.9834C96.0349 36.14 95.1733 35.67 94.1549 35.9834C93.9983 35.435 98.3849 36.2184 94.7816 35.0434C95.0949 35.0434 94.4683 35.0434 95.6432 35.0434L94.3899 34.6517C93.6066 34.6517 93.0583 34.5734 94.5466 34.3384C90.3167 33.3201 86.5567 32.7717 83.1101 33.3984C83.5801 33.5551 83.8934 33.3984 84.1284 33.6334C82.4051 33.7901 82.9535 33.4767 82.6401 33.1634C80.5252 33.6334 81.0735 33.3984 80.2902 33.8684C77.1569 33.3201 76.6869 34.5734 74.4936 33.7117L75.1986 34.1034C73.632 33.4767 73.397 34.3384 71.6737 33.8684C71.5953 33.7117 72.3786 33.7901 72.927 33.6334C71.4387 33.7901 71.4387 32.7717 69.9503 33.0067L71.282 32.6934C70.2637 32.3801 68.6187 32.4584 68.932 31.9101C66.8171 32.6151 62.4305 31.9884 60.0022 32.4584L61.0205 32.1451C59.2972 32.3801 56.3989 31.9884 54.7539 32.3801L53.5006 32.8501L51.8556 32.7717C51.1507 32.6151 51.0723 32.3017 50.9157 32.2234C48.2524 32.3017 48.4874 31.5968 44.5708 31.9884C43.7091 32.5367 41.3592 32.9284 39.0875 33.0067C28.4344 32.3801 16.9196 33.2417 7.04972 34.5734C5.56141 34.6517 3.52478 35.5917 1.72314 36.0617C3.75978 36.4533 4.38643 36.4533 6.42307 35.9834C7.98971 36.14 8.30303 36.7667 10.183 36.61L9.39968 36.4533C10.418 36.5317 10.9663 36.7667 12.768 35.9834L12.298 36.375C13.0813 36.2184 13.7079 36.61 15.2746 36.4533L16.2929 36.6883C16.3712 37.4717 18.5645 37.1583 19.2695 37.2367L18.7995 36.9233C19.8962 37.1583 23.1861 36.845 22.4028 37.3933C22.7945 37.2367 23.3428 37.3933 24.2828 37.4717L23.7344 37.9417C24.9878 37.9417 24.8311 37.3933 25.2228 37.7067C24.5961 37.6283 27.2594 37.8633 26.0844 37.4717C29.061 35.5134 27.3377 37.08 32.2726 37.0017L31.7243 37.1583L33.9176 37.08L35.4059 37.315C37.2859 36.14 41.5942 37.785 44.5708 37.0017C45.7457 36.9233 47.6257 37.55 49.819 37.55L49.349 37.08C50.994 38.1767 56.8689 38.49 58.9839 39.5866C59.5322 39.43 59.6105 39.7433 59.2189 39.2733C62.5088 38.6466 62.4305 39.665 64.0754 40.0566C63.9188 39.3516 62.8221 39.8216 63.9188 39.3516C66.9737 39.9783 65.1721 38.6466 68.932 39.195C67.3654 39.5083 70.1853 39.2733 69.7937 39.5083C67.0521 39.8216 76.5302 39.665 80.5252 39.665C85.0684 40.2916 92.04 40.6833 97.3666 41.4666L97.2099 41.3099C99.4032 42.0149 102.458 41.7016 105.043 41.3883H103.711C105.435 40.9966 106.296 41.6233 107.471 41.3099L108.568 41.4666C110.683 41.2316 110.056 41.4666 110.448 41.3099C112.093 41.5449 115.383 41.3099 116.088 41.3883C115.775 41.5449 115.383 41.3883 115.07 41.5449C117.968 41.6233 117.106 41.1533 119.613 41.2316L119.535 41.3099C125.566 40.4483 133.713 40.9966 140.449 40.2133C139.979 40.135 139.823 40.2133 139.588 40.0566C146.716 39.8216 154.862 39.7433 160.502 37.9417C156.664 38.255 149.849 38.8033 146.246 38.4116C144.366 38.255 143.347 38.5683 142.251 38.02C136.689 38.725 134.261 38.5683 128.934 38.49" fill="#D1262E"/>
</svg>

